<?xml version="1.0" encoding="utf-8"?>
<!-- Generator: Adobe Illustrator 25.4.1, SVG Export Plug-In . SVG Version: 6.00 Build 0)  -->
<svg version="1.1" xmlns="http://www.w3.org/2000/svg" xmlns:xlink="http://www.w3.org/1999/xlink" x="0px" y="0px"
	 viewBox="0 0 46.6 45.6" style="enable-background:new 0 0 46.6 45.6;" xml:space="preserve">
<style type="text/css">
	.st0{fill:#1ABC9C;}
</style>
<g id="Background_xA0_Image_00000031925635335795879080000007608814767223190965_">
	
		<image style="overflow:visible;" width="1000" height="1000" id="Background_xA0_Image" xlink:href="FCB2CC452C0E6B0D.jpg"  transform="matrix(1 0 0 1 -65.4455 -725.3309)">
	</image>
</g>
<g id="Vector_Smart_Object_xA0_Image_00000128477278618801924050000012837403665218688643_">
	<path class="st0" d="M17.6,7.7c0.6,0.3,1.2,0.6,1.7,0.8c3.9,1.9,7.7,3.7,11.6,5.6c0.6,0.3,1.2,0.6,1.9,0.8c0.2,0.1,0.2,0.1,0.2,0.3
		c-0.2,1.2-0.4,2.5-0.4,3.7c0,2.5,0.7,4.9,2,7.1c1.2,2,2.8,3.7,4.6,5.1c2.2,1.8,4.6,3.2,7.2,4.3c0.1,0,0.2,0.1,0.3,0.1
		c-0.3,0.9-0.6,1.8-0.9,2.7c-0.4-0.2-0.8-0.3-1.2-0.5c-2.7-1.2-5.3-2.8-7.5-4.7c-2-1.7-3.7-3.6-5-6c-1-1.8-1.7-3.8-2-5.9
		c-0.2-1.4-0.2-2.7,0-4.1c0-0.2-0.1-0.3-0.3-0.4c-2-1-4-1.9-6-2.9c-1-0.5-2.1-1-3.1-1.5c-0.1,0-0.2-0.1-0.3-0.1
		c-0.1,0.3-0.1,0.6-0.2,0.9c-0.5,2.7-1.5,5.1-3.2,7.3c-1.4,1.8-3.3,3.1-5.4,4c-0.2,0.1-0.3,0.2-0.3,0.4c-0.6,2.5-1.4,4.8-2.6,7.1
		c-1,1.8-2.1,3.4-3.7,4.6c-1.2,0.9-2.5,1.6-3.9,1.9c-0.4,0.1-0.4,0.1-0.4-0.3c-0.1-0.8-0.3-1.5-0.4-2.3c0-0.1,0-0.2,0.1-0.3
		c2.2-0.5,3.8-2,5-3.8c1.4-2.1,2.3-4.4,3-6.8c0.2-0.8,0.4-1.7,0.5-2.5c0-0.2,0.1-0.3,0.3-0.4c1-0.3,2-0.7,3-1.2
		c1.9-1.1,3.2-2.7,4.2-4.7c0.7-1.5,1.2-3.1,1.4-4.8c0.1-1,0.1-2.1,0.1-3.2C17.6,8.1,17.6,7.9,17.6,7.7z"/>
	<path class="st0" d="M23,35.4c0.3,0.3,0.6,0.6,0.9,0.9c0.5,0.5,1.1,0.9,1.8,1.2c1.1,0.4,2.1,0.3,3.1-0.4c0.5-0.4,0.9-0.9,1.3-1.4
		c0.1-0.1,0.1-0.2,0.2-0.3c0.3,0.2,0.5,0.5,0.7,0.7c0.5,0.5,1,0.9,1.7,1.2c1.1,0.5,2.2,0.4,3.3-0.3c0.5-0.3,0.9-0.7,1.3-1
		c0.1-0.1,0.1-0.1,0.2-0.2c0.5,0.4,1,0.8,1.5,1.2c-1.1,1.3-2.3,2.2-3.9,2.5c-1.7,0.3-3.1-0.3-4.5-1.3c-0.1,0.1-0.2,0.2-0.3,0.2
		c-1,0.8-2.2,1.3-3.5,1.2c-1.1-0.1-2.1-0.5-3-1.1c-0.4-0.3-0.4-0.3-0.9,0c-1.8,1.3-3.8,1.4-5.8,0.3c-0.3-0.2-0.6-0.4-0.8-0.6
		c-0.1-0.1-0.2-0.1-0.4,0c-1,0.7-2,1-3.2,1.1c-1.1,0-2.1-0.2-3-0.7c-0.7-0.4-1.4-0.9-2-1.5c0.4-0.5,0.8-0.9,1.2-1.4
		c0.3,0.2,0.6,0.5,0.8,0.7c0.8,0.6,1.6,1,2.6,1c1.2,0,2.2-0.4,3.1-1.2c0.2-0.2,0.4-0.4,0.7-0.6c0.2,0.2,0.5,0.5,0.7,0.7
		c0.5,0.5,1.1,0.9,1.8,1.2c1.5,0.6,3,0.2,4-1.2C22.6,35.9,22.8,35.6,23,35.4z"/>
</g>
</svg>
